<svg width="257" height="253" viewBox="0 0 257 253" fill="none" xmlns="http://www.w3.org/2000/svg">
<path d="M232 70L241.5 56L254.5 21.5L254.733 19L253 3.5L250.5 5L243 9.5L219.5 21.5L196 36L171 54L131.5 87L109 111L91 131.5L114 108.5L136.5 87L138 85.7609L171 58.5L176 56L188.5 60L205.5 65L232 70Z" fill="#E51B23"/>
<path d="M232 0L191.5 5L174 9.5L153 19L166 47.5H168.5L196 26L223.5 9.5L238.5 2L244.25 0H232Z" fill="#E51B23"/>
<path d="M200 104L232 70L205.5 65L188.5 60L176 56L171 58.5L138 85.7609L148 91.5L163 96.5L176 99.5C178.5 100.167 184 101.5 186 101.5C188 101.5 196.167 103.167 200 104Z" fill="#FD565C"/>
<path d="M0 252.5H6.5L29.5 212.5L37 215.5H70L92.5 207.5V204L49.5 202L40 198V195.5L53.5 178L80 145.5L89.5 133L91 131.5L109 111L131.5 87L171 54L196 36L219.5 21.5L243 9.5L250.5 5L253 3.5L254.733 19L256.5 0H244.25L238.5 2L223.5 9.5L196 26L168.5 47.5H166L153 19L120.5 37.5L125.5 65L131.5 78.5L101.5 106.5L67.5 145.5L34.5 191V192.5H32.5L22 178L19 177L18 179.5L19 196.5L23 210L0 248.5V252.5Z" fill="#FD565C"/>
<path d="M40 195.5L116 191L125.5 185.5L141 165.5L88.5 151V149.5L150.5 154.5L167 137.5L138 123L180 124.5L200 104C196.167 103.167 188 101.5 186 101.5C184 101.5 178.5 100.167 176 99.5L163 96.5L148 91.5L138 85.7609L136.5 87L114 108.5L91 131.5L89.5 133L80 145.5L53.5 178L40 195.5Z" fill="#FFA6AA"/>
<path d="M120.5 37.5L95.5 55.5L53.5 91.5L40 106.5L34.5 117.5L31.5 124.5V162.5V178L34.5 191L67.5 145.5L101.5 106.5L131.5 78.5L125.5 65L120.5 37.5Z" fill="#FFA6AA"/>
</svg>
